# xmcd CD database file
#
# Track frame offsets:
#	150
#	35200
#	49877
#	59460
#	82030
#	102377
#	119332
#	144207
#	170210
#	188307
#	208922
#	237170
#	264345
#	291475
#
# Disc length: 4389 seconds
#
# Revision: 0
# Processed by: cddbd v1.5.1PL0 Copyright (c) Steve Scherf et al.
# Submitted via: CDex 1.51
#
DISCID=d611230e
DTITLE=DJ EMMA - EMMA HOUSE ELEVEN
DYEAR=2005
DGENRE=House
TTITLE0=Eric Prydz Ft.Adeva - In and out(Eric Prydz Mix)
TTITLE1=Pete Tong and Steve Mac Present Lingua Franca - The Final Calling
TTITLE2=ATFC - Revolution Sure Shot
TTITLE3=The Lovefreekz - Shine(Pete Heller's Phela Style Club Mix)
TTITLE4=Juke Joint - Rude Boy
TTITLE5=The Producers - Hard You
TTITLE6=Jark Prongo - Chicago
TTITLE7=Carl Cox Feat.Hannah Robinson - Give Me Your Love(Valentino Kanzyani Mix)
TTITLE8=DJ Dan - That Phone Track
TTITLE9=Paul Masterson Pres.Subway - What U Got,What U Do
TTITLE10=Eric Prydz - Call On Me(Eric Prydz Vs Retarded Funk Mix)
TTITLE11=Hystereo - Winters In The City
TTITLE12=Deepest Blue - Give It Away(Club Mix)
TTITLE13=Calm Pres.K.F. - Shining Of Life(Calm Remix-Flutemental)
EXTD=YEAR: 2005
EXTT0=
EXTT1=
EXTT2=
EXTT3=
EXTT4=
EXTT5=
EXTT6=
EXTT7=
EXTT8=
EXTT9=
EXTT10=
EXTT11=
EXTT12=
EXTT13=
PLAYORDER=
